
<svg xmlns="http://www.w3.org/2000/svg" data-v-dc4040b2="" version="1.0" width="500"  viewBox="0 0 340.000000 200.000000" preserveAspectRatio="xMidYMid meet" color-interpolation-filters="sRGB" class="el-tooltip" style="margin: auto;">  
  <g data-v-dc4040b2="" fill="#3e3a39" transform="translate(55.76000213623047,95)">
    <g transform="translate(0,0)">
      <rect fill="#3e3a39" fill-opacity="1" stroke="#3e3a39" rx="30" ry="30" x="0" y="0" width="60" height="60"/>  
      <svg filter="url(#colors5843824259)" x="14.04118174800448" y="8.221200216729695" width="31.91763650399104" height="43.55759956654061">
        <svg viewBox="0 0 39.86 50">
          <g>
            <g>
              <g>
                <g>
                  <g>
                    <path d="M19.79 49.69l-1.29-3.56a.07.07 0 0 1-.06 0L.45 23.72a.07.07 0 0 1 0-.05l8.11-6-5-14.39a.07.07 0 0 1 0-.07h.06l21 2.6 7-5.16a.07.07 0 0 1 .1.07L30 6.42l6.56.84a.07.07 0 0 1 .06.06c0 .07 0 .16-8 3.8l-3.33 11.6 12.88 11.66a.07.07 0 0 1 0 .1L31 40.42l5.6 7.64a.07.07 0 0 1-.09.09l-8.16-5.53-8.51 7.06zM18.59 46l1.23 3.55 8.41-7L21 37.64zm9.87-3.43l7.81 5.29-5.37-7.35zM.84 24L18.4 45.84l-4.53-13zm13.22 9l4.46 12.81 2.36-8.19zm7 4.56l7.31 5 2.48-2.06L23.19 30zm2.21-7.67l7.68 10.48L38 34.43 25.25 22.86zM14 32.73l6.93 4.7 2.18-7.57-8.97-12.21-4.68 2.1zm-13.34-9l13.13 8.87-4.45-12.8zm13.63-6.1l8.87 12.1 2-6.94L17.72 16zm-5.64.15L1 23.37l8.3-3.69zm9.2-1.78l7.33 6.63 3.3-11.44-9.92 4.48zm-9.11 1.66l.68 2 4.64-2.08-1.82-2.48zM3.84 3.6l4.85 13.93L12.17 15zM12.35 15l1.83 2.5 3.43-1.54-3-2.67zm2.42-1.79l3 2.69L28.53 11l1.29-4.48-5.19-.65zM4.08 3.69l8.2 11.18 2.29-1.69zm-.24-.4l10.83 9.81 9.77-7.24zM30 6.55l-1.27 4.39c4.09-1.86 7-3.23 7.68-3.58zm-5.17-.78l5.07.63L31.47.81z" fill="#3e3a39"/>
                  </g>
                  <g>
                    <circle cx=".51" cy="23.55" r=".51" fill="#3e3a39"/>
                  </g>
                  <g>
                    <circle cx="19.79" cy="49.49" r=".51" fill="#3e3a39"/>
                  </g>
                  <g>
                    <circle cx="36.46" cy="48.01" r=".51" fill="#3e3a39"/>
                  </g>
                  <g>
                    <circle cx="38.13" cy="34.43" r=".51" fill="#3e3a39"/>
                  </g>
                  <g>
                    <circle cx="3.47" cy="3.08" r=".51" fill="#3e3a39"/>
                  </g>
                  <g>
                    <circle cx="36.46" cy="7.28" r=".51" fill="#3e3a39"/>
                  </g>
                  <g>
                    <circle cx="31.59" cy=".51" r=".51" fill="#3e3a39"/>
                  </g>
                  <g>
                    <path fill="#3e3a39" d="M36.394 7.277l.13-.008 1.665 27.15-.13.007z"/>
                  </g>
                </g>
                <g>
                  <path d="M32.4 40.6H15.66a5.17 5.17 0 0 1-3.8-1.23 5.21 5.21 0 0 1-1.21-3.78V9.23a5.32 5.32 0 0 1 1.14-3.66 3.93 3.93 0 0 1 3.05-1.3 4.05 4.05 0 0 1 3.09 1.28 5.24 5.24 0 0 1 1.17 3.68v24.15h13.3a4.45 4.45 0 0 1 3.09 1A3.41 3.41 0 0 1 36.65 37a3.34 3.34 0 0 1-1.15 2.62 4.55 4.55 0 0 1-3.1.98zM14.85 5.79a2.43 2.43 0 0 0-1.92.8 3.89 3.89 0 0 0-.75 2.64v26.36a3.81 3.81 0 0 0 .77 2.71 3.78 3.78 0 0 0 2.71.78H32.4a3.11 3.11 0 0 0 2.09-.59 1.82 1.82 0 0 0 .63-1.49 1.89 1.89 0 0 0-.65-1.49 3 3 0 0 0-2.07-.62H18.35a.76.76 0 0 1-.76-.76V9.23a3.82 3.82 0 0 0-.76-2.64 2.55 2.55 0 0 0-1.98-.8z" fill="#3e3a39"/>
                </g>
                <g>
                  <path d="M35.61 37.63H18.88a5.17 5.17 0 0 1-3.8-1.23 5.21 5.21 0 0 1-1.21-3.78V6.26A5.32 5.32 0 0 1 15 2.6a3.93 3.93 0 0 1 3.05-1.3 4.05 4.05 0 0 1 3.09 1.28 5.24 5.24 0 0 1 1.17 3.68v24.15h13.3a4.45 4.45 0 0 1 3.09 1A3.41 3.41 0 0 1 39.86 34a3.34 3.34 0 0 1-1.15 2.62 4.55 4.55 0 0 1-3.1 1.01zM18.06 2.82a2.43 2.43 0 0 0-1.92.8 3.89 3.89 0 0 0-.75 2.64v26.36a3.81 3.81 0 0 0 .77 2.71 3.78 3.78 0 0 0 2.71.78h16.74a3.11 3.11 0 0 0 2.09-.59 1.83 1.83 0 0 0 .63-1.52 1.89 1.89 0 0 0-.65-1.49 3 3 0 0 0-2.07-.62H21.56a.76.76 0 0 1-.76-.76V6.26a3.82 3.82 0 0 0-.8-2.64 2.55 2.55 0 0 0-1.94-.8z" fill="#3e3a39"/>
                </g>
              </g>
            </g>
          </g>
        </svg>
      </svg>  
      <defs>
        <filter id="colors5843824259">
          <feColorMatrix type="matrix" values="0 0 0 0 0.99609375  0 0 0 0 0.99609375  0 0 0 0 0.99609375  0 0 0 1 0"/>
        </filter>
      </defs>
    </g>  
    <g transform="translate(67,11.779998779296875)">
      <g>
        <g>
          <path transform="translate(-1.8,27.36)" d="M5.96-0.12L5.96-27.36L1.80-27.36L1.80-0.12ZM22.68 0.12L27.04-5L27.04-13.48L22.68-18.80L13.92-18.80L9.56-13.48L9.56-5L13.92 0.12ZM15.84-4.08C15.28-4.72 14.96-5.16 14.44-5.72C14.16-6 14-6.24 13.72-6.56L13.72-12.04C14.44-12.88 15.16-13.76 15.88-14.60L20.72-14.60C21.52-13.56 22.04-12.96 22.80-12.08L22.88-12L22.88-6.52C22.48-6 22.16-5.68 21.80-5.32C21.44-4.92 21.16-4.52 20.76-4.08ZM30.64-18.92L34.60-18.92L34.60-25.04L38.80-25.04L38.80-18.92L43.84-18.92L43.84-14.72L38.80-14.72L38.80-5.60C39.12-5.20 39.60-4.68 39.96-4.24L43.68-4.24L43.68-0.04L38.04-0.04L34.60-4.12L34.60-14.72L30.64-14.72ZM59.88-18.76L59.88-8.32L56.52-4.12L52.80-4.12C52.36-4.68 52.32-4.80 52.04-5.16C51.92-5.36 51.80-5.60 51.60-5.88L51.60-18.76L47.44-18.76L47.44-4.44L50.60 0.08L57.84 0.08L59.88-2.28L59.88 0.12L64.04 0.12L64.04-18.76ZM80.72-18.80L70.20-18.80L67.64-15.80L67.64-10.24L70.16-7.24L76.84-7.24C77.04-7.08 77.16-6.92 77.28-6.80L77.28-4.64C77.16-4.48 76.92-4.28 76.76-4.08L68.48-4.08L68.48 0.12L78.56 0.12L81.48-3L81.48-8.64L78.36-11.40L72.08-11.40C71.96-11.52 71.88-11.68 71.84-11.72L71.84-14.28C71.88-14.36 72-14.52 72.08-14.60L80.72-14.60ZM89.56-18.72L89.56 3.24C89.16 3.84 88.80 4.28 88.40 4.88L85.08 4.88L85.08 9.08L90.56 9.08L93.76 4.40L93.76-18.72ZM88.40-22.84L91.56-19.68L94.76-22.84L91.56-26ZM111.44-18.80L100.92-18.80L98.36-15.80L98.36-10.24L100.88-7.24L107.56-7.24C107.76-7.08 107.88-6.92 108-6.80L108-4.64C107.88-4.48 107.64-4.28 107.48-4.08L99.20-4.08L99.20 0.12L109.28 0.12L112.20-3L112.20-8.64L109.08-11.40L102.80-11.40C102.68-11.52 102.60-11.68 102.56-11.72L102.56-14.28C102.60-14.36 102.72-14.52 102.80-14.60L111.44-14.60ZM115.80-8.16L127.44-8.16L127.44-12.32L115.80-12.32ZM145.56-18.76L134.32-18.76L131.04-14.48L131.04-3.96L134.36 0.12L145.56 0.12L145.56-4.08L136.40-4.08C136-4.52 135.56-5 135.20-5.40L135.20-13.16C135.52-13.56 135.64-13.64 135.88-13.96C136.04-14.16 136.28-14.36 136.40-14.56L145.56-14.56ZM153.32-0.12L153.32-27.36L149.16-27.36L149.16-0.12ZM158.08-18.96L158.08-0.08L162.24-0.08L162.24-18.96ZM156.92-23.12L160.08-19.96L163.28-23.12L160.08-26.28Z"/>
        </g> 
      </g> 
    </g>
  </g>
</svg>
